<svg width="219" height="36" viewBox="0 0 219 36" xmlns="http://www.w3.org/2000/svg" xmlns:xlink="http://www.w3.org/1999/xlink"><defs><path d="M18.24 4.2h3.78v19.8h-3.78v-8.58h-9.24v8.58h-3.78v-19.8h3.78v8.1h9.24v-8.1zm21.3 16.89l.15 2.85s-.81.21-1.8.21c-1.83 0-2.85-.72-3.09-2.25-.42.81-1.62 2.28-4.65 2.28-3.09 0-4.8-1.56-4.8-3.9 0-3.39 3.45-4.38 9.03-4.47h.24v-.69c0-1.59-.96-2.64-2.85-2.64-1.74 0-2.7.69-2.7 1.86 0 .24.06.42.12.57l-3.24.54s-.18-.57-.18-1.32c0-2.67 2.31-4.47 6.12-4.47 4.05 0 6.3 2.1 6.3 5.55v4.98c0 .72.24.96.84.96.18 0 .36-.03.51-.06zm-8.43.3c2.22 0 3.51-1.17 3.51-2.37v-1.2h-.24c-3.84.06-5.46.66-5.46 2.07 0 .96.78 1.5 2.19 1.5zm19.26-11.73c3.48 0 5.37 2.37 5.37 5.64v8.7h-3.66v-8.19c0-1.83-.96-3.03-2.76-3.03-2.34 0-3.39 2.1-3.39 3.87v7.35h-3.66v-14.16l2.82-.12c.27.99.45 2.46.45 3.09h.09c.72-1.71 2.16-3.15 4.74-3.15zm16.83 11.97c3.42 0 5.7 1.35 5.7 4.11 0 2.34-1.77 4.53-7.62 4.53-5.16 0-7.5-1.5-7.5-3.75 0-1.41.9-2.37 2.4-2.88-.96-.54-1.56-1.41-1.56-2.58 0-1.32.9-2.19 1.98-2.55-1.02-.93-1.59-2.16-1.59-3.66 0-3.09 2.49-5.16 6.21-5.16 1.53 0 2.85.33 3.87.93.99-.51 1.38-1.8 1.38-3.39l2.82.72c0 2.37-1.71 3.6-2.85 3.84.69.81 1.05 1.86 1.05 3.06 0 3.09-2.49 5.19-6.24 5.19-.96 0-1.83-.15-2.58-.39-.72.15-1.11.45-1.11.93 0 .81.78 1.05 2.52 1.05h3.12zm-4.71-6.78c-.03 1.47 1.05 2.46 2.73 2.46 1.71.03 2.82-.96 2.85-2.43 0-1.47-1.11-2.46-2.79-2.49-1.68 0-2.79.99-2.79 2.46zm2.79 12.78c3.09 0 4.23-.57 4.23-1.74 0-1.14-.9-1.44-2.73-1.44h-2.82c-2.19 0-2.88.63-2.88 1.5 0 1.14 1.17 1.68 4.2 1.68zm33.03-23.43v19.8h-3.72l-6.84-10.44c-.81-1.23-1.86-3.03-2.25-3.69l-.15.09c.09.42.15 1.98.15 3.57l.06 10.47h-3.72v-19.8h3.57l7.05 10.8c1.08 1.68 1.89 3.15 2.16 3.72l.18-.09c-.06-.51-.15-2.01-.15-3.66l-.03-10.77h3.69zm12.03 17.43c3.42 0 5.7 1.35 5.7 4.11 0 2.34-1.77 4.53-7.62 4.53-5.16 0-7.5-1.5-7.5-3.75 0-1.41.9-2.37 2.4-2.88-.96-.54-1.56-1.41-1.56-2.58 0-1.32.9-2.19 1.98-2.55-1.02-.93-1.59-2.16-1.59-3.66 0-3.09 2.49-5.16 6.21-5.16 1.53 0 2.85.33 3.87.93.99-.51 1.38-1.8 1.38-3.39l2.82.72c0 2.37-1.71 3.6-2.85 3.84.69.81 1.05 1.86 1.05 3.06 0 3.09-2.49 5.19-6.24 5.19-.96 0-1.83-.15-2.58-.39-.72.15-1.11.45-1.11.93 0 .81.78 1.05 2.52 1.05h3.12zm-4.71-6.78c-.03 1.47 1.05 2.46 2.73 2.46 1.71.03 2.82-.96 2.85-2.43 0-1.47-1.11-2.46-2.79-2.49-1.68 0-2.79.99-2.79 2.46zm2.79 12.78c3.09 0 4.23-.57 4.23-1.74 0-1.14-.9-1.44-2.73-1.44h-2.82c-2.19 0-2.88.63-2.88 1.5 0 1.14 1.17 1.68 4.2 1.68zm16.44-17.97c4.47 0 7.41 3.03 7.41 7.29s-2.94 7.23-7.41 7.23c-4.44 0-7.41-2.97-7.41-7.23s2.97-7.29 7.41-7.29zm0 11.52c2.25 0 3.69-1.74 3.69-4.23 0-2.52-1.44-4.29-3.69-4.29s-3.69 1.77-3.69 4.29c0 2.49 1.44 4.23 3.69 4.23zm25.785-16.862c3.977 0 6.252 2.082 6.252 5.571 0 4.445-3.006 7.236-7.655 7.236h-4.25l-.863 6.875h-1.878l2.465-19.682h5.929zm-1.464 11.195c3.556 0 5.801-2.073 5.801-5.389 0-2.589-1.696-4.194-4.634-4.194h-3.951l-1.203 9.583h3.987zm17.933-.828c.073-.164.186-.583.186-1.007 0-1.479-1.204-2.33-2.971-2.33-2.084 0-3.394 1.078-3.394 2.621 0 3.277 7.564 1.321 7.564 5.877 0 2.69-2.343 4.31-5.777 4.31-3.372 0-4.832-1.624-5.249-2.071l1.25-1.22c.314.369 1.72 1.746 4.204 1.746 2.354 0 3.711-1.041 3.711-2.56 0-3.107-7.552-1.477-7.552-5.901 0-2.486 2.259-4.348 5.466-4.348 2.71 0 4.499 1.382 4.499 3.471 0 .679-.235 1.279-.235 1.279l-1.702.133zm15.71-4.727l1.812-.001-1.799 14.326c-.45 3.632-2.841 5.992-7.039 5.992-2.791 0-4.267-1.05-4.906-1.496l1.02-1.491c.837.759 2.277 1.442 4.084 1.442 3.098 0 4.783-1.612 5.148-4.471l.43-3.341h-.028c-.963 1.791-2.705 3.238-5.131 3.238-3.169 0-4.761-2.233-4.341-5.552l1.074-8.646h1.83l-1.074 8.646c-.317 2.413.755 4.006 3.03 4.006 2.722 0 4.514-2.675 4.894-4.771l.993-7.881zm4.091 13.005h.001c0-.825.722-1.524 1.542-1.524.662 0 1.168.566 1.168 1.235 0 .825-.729 1.506-1.524 1.506-.699 0-1.187-.548-1.187-1.217zm14.522-18.645c5.331 0 8.372 3.126 8.372 8.353 0 7.255-3.908 11.329-9.806 11.329h-6.182l2.465-19.682h5.151zm-1.301 18.07c4.605 0 7.777-3.471 7.777-9.584 0-4.478-2.468-6.873-6.717-6.873h-3.228l-2.072 16.458h4.24zm11.739.575h.001c0-.825.722-1.524 1.542-1.524.662 0 1.168.566 1.168 1.235 0 .825-.729 1.506-1.524 1.506-.699 0-1.187-.548-1.187-1.217z" id="b"/><filter x="-3.8%" y="-26.8%" width="107.6%" height="161.4%" filterUnits="objectBoundingBox" id="a"><feOffset dy="1" in="SourceAlpha" result="shadowOffsetOuter1"/><feGaussianBlur stdDeviation="2.5" in="shadowOffsetOuter1" result="shadowBlurOuter1"/><feColorMatrix values="0 0 0 0 0.0509803922 0 0 0 0 0.31372549 0 0 0 0 0.694117647 0 0 0 1 0" in="shadowBlurOuter1"/></filter></defs><g fill-rule="nonzero" fill="none"><use fill="#000" filter="url(#a)" xlink:href="#b"/><use fill="#fff" xlink:href="#b"/></g></svg>
